# Blender 4.5.3 LTS
# www.blender.org
o Mask
v 0.000000 0.110624 0.841081
v 0.000000 1.406582 0.841081
v 0.000000 0.110624 -0.841081
v 0.000000 1.406582 -0.841081
v 1.100000 0.110624 0.841081
v 1.100000 1.406582 0.841081
v 1.100000 0.110624 -0.841081
v 1.100000 1.406582 -0.841081
v 0.000000 0.110624 -0.504649
v 0.000000 0.110624 -0.168216
v 0.000000 0.110624 0.168216
v 0.000000 0.110624 0.504649
v 0.000000 0.369815 0.841081
v 0.000000 0.629007 0.841081
v 0.000000 0.888199 0.841081
v 0.000000 1.147391 0.841081
v 0.000000 1.406582 0.504649
v 0.000000 1.406582 0.168216
v 0.000000 1.406582 -0.168216
v 0.000000 1.406582 -0.504649
v 0.000000 1.147390 -0.841081
v 0.000000 0.888199 -0.841081
v 0.000000 0.629007 -0.841081
v 0.000000 0.369815 -0.841081
v 0.880000 0.110624 -0.841081
v 0.660000 0.110624 -0.841081
v 0.440000 0.110624 -0.841081
v 0.220000 0.110624 -0.841081
v 0.220000 1.406582 -0.841081
v 0.440000 1.406582 -0.841081
v 0.660000 1.406582 -0.841081
v 0.880000 1.406582 -0.841081
v 1.100000 1.147390 -0.841081
v 1.100000 0.888199 -0.841081
v 1.100000 0.629007 -0.841081
v 1.100000 0.369815 -0.841081
v 1.100000 0.110624 0.504649
v 1.100000 0.110624 0.168216
v 1.100000 0.110624 -0.168216
v 1.100000 0.110624 -0.504649
v 1.100000 1.406582 -0.504649
v 1.100000 1.406582 -0.168216
v 1.100000 1.406582 0.168216
v 1.100000 1.406582 0.504649
v 1.100000 1.147390 0.841081
v 1.100000 0.888199 0.841081
v 1.100000 0.629007 0.841081
v 1.100000 0.369815 0.841081
v 0.220000 0.110624 0.841081
v 0.440000 0.110624 0.841081
v 0.660000 0.110624 0.841081
v 0.880000 0.110624 0.841081
v 0.880000 1.406582 0.841081
v 0.660000 1.406582 0.841081
v 0.440000 1.406582 0.841081
v 0.220000 1.406582 0.841081
v 0.880000 1.406582 -0.504649
v 0.880000 1.406582 -0.168216
v 0.880000 1.406582 0.168216
v 0.880000 1.406582 0.504649
v 0.660000 1.406582 -0.504649
v 0.660000 1.406582 -0.168216
v 0.660000 1.406582 0.168216
v 0.660000 1.406582 0.504649
v 0.440000 1.406582 -0.504649
v 0.440000 1.406582 -0.168216
v 0.440000 1.406582 0.168216
v 0.440000 1.406582 0.504649
v 0.220000 1.406582 -0.504649
v 0.220000 1.406582 -0.168216
v 0.220000 1.406582 0.168216
v 0.220000 1.406582 0.504649
v 0.220000 0.110624 -0.504649
v 0.220000 0.110624 -0.168216
v 0.220000 0.110624 0.168216
v 0.220000 0.110624 0.504649
v 0.440000 0.110624 -0.504649
v 0.440000 0.110624 -0.168216
v 0.440000 0.110624 0.168216
v 0.440000 0.110624 0.504649
v 0.660000 0.110624 -0.504649
v 0.660000 0.110624 -0.168216
v 0.660000 0.110624 0.168216
v 0.660000 0.110624 0.504649
v 0.880000 0.110624 -0.504649
v 0.880000 0.110624 -0.168216
v 0.880000 0.110624 0.168216
v 0.880000 0.110624 0.504649
v 0.880000 0.369815 0.841081
v 0.660000 0.369815 0.841081
v 0.440000 0.369815 0.841081
v 0.220000 0.369815 0.841081
v 0.880000 0.629007 0.841081
v 0.660000 0.629007 0.841081
v 0.440000 0.629007 0.841081
v 0.220000 0.629007 0.841081
v 0.880000 0.888199 0.841081
v 0.660000 0.888199 0.841081
v 0.440000 0.888199 0.841081
v 0.220000 0.888199 0.841081
v 0.880000 1.147390 0.841081
v 0.660000 1.147390 0.841081
v 0.440000 1.147390 0.841081
v 0.220000 1.147390 0.841081
v 1.100000 0.369815 -0.504649
v 1.100000 0.369815 -0.168216
v 1.100000 0.369815 0.168216
v 1.100000 0.369815 0.504649
v 1.100000 0.629007 -0.504649
v 1.100000 0.629007 -0.168216
v 1.100000 0.629007 0.168216
v 1.100000 0.629007 0.504649
v 1.100000 0.888199 -0.504649
v 1.100000 0.888199 -0.168216
v 1.100000 0.888199 0.168216
v 1.100000 0.888199 0.504649
v 1.100000 1.147390 -0.504649
v 1.100000 1.147390 -0.168216
v 1.100000 1.147390 0.168216
v 1.100000 1.147390 0.504649
v 0.220000 0.369815 -0.841081
v 0.440000 0.369815 -0.841081
v 0.660000 0.369815 -0.841081
v 0.880000 0.369815 -0.841081
v 0.220000 0.629007 -0.841081
v 0.440000 0.629007 -0.841081
v 0.660000 0.629007 -0.841081
v 0.880000 0.629007 -0.841081
v 0.220000 0.888199 -0.841081
v 0.440000 0.888199 -0.841081
v 0.660000 0.888199 -0.841081
v 0.880000 0.888199 -0.841081
v 0.220000 1.147390 -0.841081
v 0.440000 1.147390 -0.841081
v 0.660000 1.147390 -0.841081
v 0.880000 1.147390 -0.841081
v 0.000000 0.369815 0.504649
v 0.000000 0.369815 0.168216
v 0.000000 0.369815 -0.168216
v 0.000000 0.369815 -0.504649
v 0.000000 0.629007 0.504649
v 0.000000 0.629007 0.168216
v 0.000000 0.629007 -0.168216
v 0.000000 0.629007 -0.504649
v 0.000000 0.888199 0.504649
v 0.000000 0.888199 0.168216
v 0.000000 0.888199 -0.168216
v 0.000000 0.888199 -0.504649
v 0.000000 1.147391 0.504649
v 0.000000 1.147391 0.168216
v 0.000000 1.147391 -0.168216
v 0.000000 1.147391 -0.504649
vn -0.0000 -0.0000 1.0000
vn -1.0000 -0.0000 -0.0000
vn -0.0000 -0.0000 -1.0000
vn -0.0000 -1.0000 -0.0000
vn -0.0000 1.0000 -0.0000
vn 1.0000 -0.0000 -0.0000
vt 0.425000 0.750000
vt 0.425000 0.800000
vt 0.375000 0.800000
vt 0.375000 0.750000
vt 0.425000 0.050000
vt 0.425000 0.100000
vt 0.375000 0.100000
vt 0.375000 0.050000
vt 0.425000 0.300000
vt 0.425000 0.350000
vt 0.375000 0.350000
vt 0.375000 0.300000
vt 0.375000 0.600000
vt 0.325000 0.600000
vt 0.325000 0.550000
vt 0.375000 0.550000
vt 0.875000 0.600000
vt 0.825000 0.600000
vt 0.825000 0.550000
vt 0.875000 0.550000
vt 0.675000 0.550000
vt 0.675000 0.600000
vt 0.625000 0.600000
vt 0.625000 0.550000
vt 0.725000 0.550000
vt 0.725000 0.600000
vt 0.775000 0.550000
vt 0.775000 0.600000
vt 0.675000 0.650000
vt 0.625000 0.650000
vt 0.675000 0.700000
vt 0.625000 0.700000
vt 0.675000 0.750000
vt 0.625000 0.750000
vt 0.725000 0.500000
vt 0.675000 0.500000
vt 0.775000 0.500000
vt 0.725000 0.650000
vt 0.725000 0.700000
vt 0.725000 0.750000
vt 0.825000 0.500000
vt 0.775000 0.650000
vt 0.775000 0.700000
vt 0.775000 0.750000
vt 0.875000 0.500000
vt 0.825000 0.650000
vt 0.825000 0.700000
vt 0.825000 0.750000
vt 0.175000 0.500000
vt 0.175000 0.550000
vt 0.125000 0.550000
vt 0.125000 0.500000
vt 0.875000 0.650000
vt 0.875000 0.700000
vt 0.875000 0.750000
vt 0.225000 0.500000
vt 0.225000 0.550000
vt 0.175000 0.600000
vt 0.125000 0.600000
vt 0.225000 0.600000
vt 0.275000 0.550000
vt 0.275000 0.600000
vt 0.175000 0.650000
vt 0.125000 0.650000
vt 0.175000 0.700000
vt 0.125000 0.700000
vt 0.175000 0.750000
vt 0.125000 0.750000
vt 0.275000 0.500000
vt 0.225000 0.650000
vt 0.225000 0.700000
vt 0.225000 0.750000
vt 0.325000 0.500000
vt 0.275000 0.650000
vt 0.275000 0.700000
vt 0.275000 0.750000
vt 0.375000 0.500000
vt 0.325000 0.650000
vt 0.325000 0.700000
vt 0.325000 0.750000
vt 0.425000 0.550000
vt 0.425000 0.600000
vt 0.375000 0.650000
vt 0.375000 0.700000
vt 0.425000 0.850000
vt 0.375000 0.850000
vt 0.475000 0.800000
vt 0.475000 0.850000
vt 0.525000 0.800000
vt 0.525000 0.850000
vt 0.575000 0.800000
vt 0.575000 0.850000
vt 0.625000 0.800000
vt 0.625000 0.850000
vt 0.425000 0.900000
vt 0.375000 0.900000
vt 0.425000 0.950000
vt 0.375000 0.950000
vt 0.425000 1.000000
vt 0.375000 1.000000
vt 0.475000 0.750000
vt 0.475000 0.900000
vt 0.475000 0.950000
vt 0.475000 1.000000
vt 0.525000 0.750000
vt 0.525000 0.900000
vt 0.525000 0.950000
vt 0.525000 1.000000
vt 0.575000 0.750000
vt 0.575000 0.900000
vt 0.575000 0.950000
vt 0.575000 1.000000
vt 0.625000 0.900000
vt 0.625000 0.950000
vt 0.625000 1.000000
vt 0.425000 0.500000
vt 0.475000 0.550000
vt 0.475000 0.600000
vt 0.525000 0.550000
vt 0.525000 0.600000
vt 0.575000 0.550000
vt 0.575000 0.600000
vt 0.425000 0.650000
vt 0.425000 0.700000
vt 0.475000 0.500000
vt 0.475000 0.650000
vt 0.475000 0.700000
vt 0.525000 0.500000
vt 0.525000 0.650000
vt 0.525000 0.700000
vt 0.575000 0.500000
vt 0.575000 0.650000
vt 0.575000 0.700000
vt 0.625000 0.500000
vt 0.425000 0.250000
vt 0.375000 0.250000
vt 0.475000 0.300000
vt 0.475000 0.350000
vt 0.525000 0.300000
vt 0.525000 0.350000
vt 0.575000 0.300000
vt 0.575000 0.350000
vt 0.625000 0.300000
vt 0.625000 0.350000
vt 0.425000 0.400000
vt 0.375000 0.400000
vt 0.425000 0.450000
vt 0.375000 0.450000
vt 0.475000 0.250000
vt 0.475000 0.400000
vt 0.475000 0.450000
vt 0.525000 0.250000
vt 0.525000 0.400000
vt 0.525000 0.450000
vt 0.575000 0.250000
vt 0.575000 0.400000
vt 0.575000 0.450000
vt 0.625000 0.250000
vt 0.625000 0.400000
vt 0.625000 0.450000
vt 0.425000 0.000000
vt 0.375000 0.000000
vt 0.475000 0.050000
vt 0.475000 0.100000
vt 0.525000 0.050000
vt 0.525000 0.100000
vt 0.575000 0.050000
vt 0.575000 0.100000
vt 0.625000 0.050000
vt 0.625000 0.100000
vt 0.425000 0.150000
vt 0.375000 0.150000
vt 0.425000 0.200000
vt 0.375000 0.200000
vt 0.475000 0.000000
vt 0.475000 0.150000
vt 0.475000 0.200000
vt 0.525000 0.000000
vt 0.525000 0.150000
vt 0.525000 0.200000
vt 0.575000 0.000000
vt 0.575000 0.150000
vt 0.575000 0.200000
vt 0.625000 0.000000
vt 0.625000 0.150000
vt 0.625000 0.200000
s 1
f 48/1/1 89/2/1 52/3/1 5/4/1
f 137/5/2 138/6/2 11/7/2 12/8/2
f 121/9/3 122/10/3 27/11/3 28/12/3
f 39/13/4 86/14/4 85/15/4 40/16/4
f 19/17/5 70/18/5 69/19/5 20/20/5
f 57/21/5 58/22/5 42/23/5 41/24/5
f 61/25/5 62/26/5 58/22/5 57/21/5
f 65/27/5 66/28/5 62/26/5 61/25/5
f 69/19/5 70/18/5 66/28/5 65/27/5
f 58/22/5 59/29/5 43/30/5 42/23/5
f 59/29/5 60/31/5 44/32/5 43/30/5
f 53/33/5 6/34/5 44/32/5 60/31/5
f 31/35/5 61/25/5 57/21/5 32/36/5
f 30/37/5 65/27/5 61/25/5 31/35/5
f 62/26/5 63/38/5 59/29/5 58/22/5
f 63/38/5 64/39/5 60/31/5 59/29/5
f 60/31/5 64/39/5 54/40/5 53/33/5
f 29/41/5 69/19/5 65/27/5 30/37/5
f 66/28/5 67/42/5 63/38/5 62/26/5
f 67/42/5 68/43/5 64/39/5 63/38/5
f 64/39/5 68/43/5 55/44/5 54/40/5
f 4/45/5 20/20/5 69/19/5 29/41/5
f 70/18/5 71/46/5 67/42/5 66/28/5
f 71/46/5 72/47/5 68/43/5 67/42/5
f 68/43/5 72/47/5 56/48/5 55/44/5
f 28/49/4 73/50/4 9/51/4 3/52/4
f 18/53/5 71/46/5 70/18/5 19/17/5
f 17/54/5 72/47/5 71/46/5 18/53/5
f 72/47/5 17/54/5 2/55/5 56/48/5
f 27/56/4 77/57/4 73/50/4 28/49/4
f 73/50/4 74/58/4 10/59/4 9/51/4
f 77/57/4 78/60/4 74/58/4 73/50/4
f 81/61/4 82/62/4 78/60/4 77/57/4
f 85/15/4 86/14/4 82/62/4 81/61/4
f 74/58/4 75/63/4 11/64/4 10/59/4
f 75/63/4 76/65/4 12/66/4 11/64/4
f 12/66/4 76/65/4 49/67/4 1/68/4
f 26/69/4 81/61/4 77/57/4 27/56/4
f 78/60/4 79/70/4 75/63/4 74/58/4
f 79/70/4 80/71/4 76/65/4 75/63/4
f 76/65/4 80/71/4 50/72/4 49/67/4
f 25/73/4 85/15/4 81/61/4 26/69/4
f 82/62/4 83/74/4 79/70/4 78/60/4
f 83/74/4 84/75/4 80/71/4 79/70/4
f 80/71/4 84/75/4 51/76/4 50/72/4
f 7/77/4 40/16/4 85/15/4 25/73/4
f 86/14/4 87/78/4 83/74/4 82/62/4
f 87/78/4 88/79/4 84/75/4 83/74/4
f 84/75/4 88/79/4 52/80/4 51/76/4
f 105/81/6 106/82/6 39/13/6 40/16/6
f 38/83/4 87/78/4 86/14/4 39/13/4
f 37/84/4 88/79/4 87/78/4 38/83/4
f 88/79/4 37/84/4 5/4/4 52/80/4
f 89/2/1 90/85/1 51/86/1 52/3/1
f 93/87/1 94/88/1 90/85/1 89/2/1
f 97/89/1 98/90/1 94/88/1 93/87/1
f 101/91/1 102/92/1 98/90/1 97/89/1
f 53/93/1 54/94/1 102/92/1 101/91/1
f 90/85/1 91/95/1 50/96/1 51/86/1
f 91/95/1 92/97/1 49/98/1 50/96/1
f 49/98/1 92/97/1 13/99/1 1/100/1
f 47/101/1 93/87/1 89/2/1 48/1/1
f 94/88/1 95/102/1 91/95/1 90/85/1
f 95/102/1 96/103/1 92/97/1 91/95/1
f 92/97/1 96/103/1 14/104/1 13/99/1
f 46/105/1 97/89/1 93/87/1 47/101/1
f 98/90/1 99/106/1 95/102/1 94/88/1
f 99/106/1 100/107/1 96/103/1 95/102/1
f 96/103/1 100/107/1 15/108/1 14/104/1
f 45/109/1 101/91/1 97/89/1 46/105/1
f 102/92/1 103/110/1 99/106/1 98/90/1
f 103/110/1 104/111/1 100/107/1 99/106/1
f 100/107/1 104/111/1 16/112/1 15/108/1
f 6/34/1 53/93/1 101/91/1 45/109/1
f 54/94/1 55/113/1 103/110/1 102/92/1
f 55/113/1 56/114/1 104/111/1 103/110/1
f 104/111/1 56/114/1 2/115/1 16/112/1
f 36/116/6 105/81/6 40/16/6 7/77/6
f 109/117/6 110/118/6 106/82/6 105/81/6
f 113/119/6 114/120/6 110/118/6 109/117/6
f 117/121/6 118/122/6 114/120/6 113/119/6
f 41/24/6 42/23/6 118/122/6 117/121/6
f 106/82/6 107/123/6 38/83/6 39/13/6
f 107/123/6 108/124/6 37/84/6 38/83/6
f 37/84/6 108/124/6 48/1/6 5/4/6
f 35/125/6 109/117/6 105/81/6 36/116/6
f 110/118/6 111/126/6 107/123/6 106/82/6
f 111/126/6 112/127/6 108/124/6 107/123/6
f 108/124/6 112/127/6 47/101/6 48/1/6
f 34/128/6 113/119/6 109/117/6 35/125/6
f 114/120/6 115/129/6 111/126/6 110/118/6
f 115/129/6 116/130/6 112/127/6 111/126/6
f 112/127/6 116/130/6 46/105/6 47/101/6
f 33/131/6 117/121/6 113/119/6 34/128/6
f 118/122/6 119/132/6 115/129/6 114/120/6
f 119/132/6 120/133/6 116/130/6 115/129/6
f 116/130/6 120/133/6 45/109/6 46/105/6
f 8/134/6 41/24/6 117/121/6 33/131/6
f 42/23/6 43/30/6 119/132/6 118/122/6
f 43/30/6 44/32/6 120/133/6 119/132/6
f 120/133/6 44/32/6 6/34/6 45/109/6
f 24/135/3 121/9/3 28/12/3 3/136/3
f 125/137/3 126/138/3 122/10/3 121/9/3
f 129/139/3 130/140/3 126/138/3 125/137/3
f 133/141/3 134/142/3 130/140/3 129/139/3
f 29/143/3 30/144/3 134/142/3 133/141/3
f 122/10/3 123/145/3 26/146/3 27/11/3
f 123/145/3 124/147/3 25/148/3 26/146/3
f 25/148/3 124/147/3 36/116/3 7/77/3
f 23/149/3 125/137/3 121/9/3 24/135/3
f 126/138/3 127/150/3 123/145/3 122/10/3
f 127/150/3 128/151/3 124/147/3 123/145/3
f 124/147/3 128/151/3 35/125/3 36/116/3
f 22/152/3 129/139/3 125/137/3 23/149/3
f 130/140/3 131/153/3 127/150/3 126/138/3
f 131/153/3 132/154/3 128/151/3 127/150/3
f 128/151/3 132/154/3 34/128/3 35/125/3
f 21/155/3 133/141/3 129/139/3 22/152/3
f 134/142/3 135/156/3 131/153/3 130/140/3
f 135/156/3 136/157/3 132/154/3 131/153/3
f 132/154/3 136/157/3 33/131/3 34/128/3
f 4/158/3 29/143/3 133/141/3 21/155/3
f 30/144/3 31/159/3 135/156/3 134/142/3
f 31/159/3 32/160/3 136/157/3 135/156/3
f 136/157/3 32/160/3 8/134/3 33/131/3
f 13/161/2 137/5/2 12/8/2 1/162/2
f 141/163/2 142/164/2 138/6/2 137/5/2
f 145/165/2 146/166/2 142/164/2 141/163/2
f 149/167/2 150/168/2 146/166/2 145/165/2
f 17/169/2 18/170/2 150/168/2 149/167/2
f 138/6/2 139/171/2 10/172/2 11/7/2
f 139/171/2 140/173/2 9/174/2 10/172/2
f 9/174/2 140/173/2 24/135/2 3/136/2
f 14/175/2 141/163/2 137/5/2 13/161/2
f 142/164/2 143/176/2 139/171/2 138/6/2
f 143/176/2 144/177/2 140/173/2 139/171/2
f 140/173/2 144/177/2 23/149/2 24/135/2
f 15/178/2 145/165/2 141/163/2 14/175/2
f 146/166/2 147/179/2 143/176/2 142/164/2
f 147/179/2 148/180/2 144/177/2 143/176/2
f 144/177/2 148/180/2 22/152/2 23/149/2
f 16/181/2 149/167/2 145/165/2 15/178/2
f 150/168/2 151/182/2 147/179/2 146/166/2
f 151/182/2 152/183/2 148/180/2 147/179/2
f 148/180/2 152/183/2 21/155/2 22/152/2
f 2/184/2 17/169/2 149/167/2 16/181/2
f 18/170/2 19/185/2 151/182/2 150/168/2
f 19/185/2 20/186/2 152/183/2 151/182/2
f 152/183/2 20/186/2 4/158/2 21/155/2
f 32/36/5 57/21/5 41/24/5 8/134/5
